<svg xmlns:xlink="http://www.w3.org/1999/xlink" xmlns="http://www.w3.org/2000/svg" id="Layer_2" viewBox="0 0 167.54 167.54" width="181"  height="181" ><defs><style>.cls-1{fill:#fff}</style></defs><g id="Layer_1-2" data-name="Layer_1"><path d="M0 0h167.54v167.54H0z"/><g id="Shape"><path d="M133.73 112.64h.01c.01 0 .02.01.04.02s.03.02.05.03c.02.01.05.03.07.04.01 0 .02.01.03.02l.1.06c-.01 0-.03-.02-.04-.03-.08-.05-.16-.09-.23-.14a33.546 33.546 0 0 1-16.49-28.88c0-8.9 3.53-17.43 9.83-23.72 2.03-2.03 4.29-3.77 6.71-5.19.01 0 .03-.02.04-.02.03-.02.05-.03.08-.05-.02.01-.04.02-.05.03a33.522 33.522 0 0 1-16.6 4.4c-8.9 0-17.43-3.53-23.72-9.83-6.2-6.2-9.72-14.58-9.82-23.34v-.35c0 26.68 10.61 52.27 29.48 71.14 6.19 6.19 13.1 11.49 20.53 15.81zM73.89 49.38a33.522 33.522 0 0 1-40.32 5.43c-.02-.01-.04-.02-.05-.03.03.02.05.03.08.05a33.652 33.652 0 0 1 6.75 5.21 33.537 33.537 0 0 1 9.82 23.72 33.537 33.537 0 0 1-16.49 28.89.21.21 0 0 0-.06.04s-.01 0-.02.01h.01c.03-.01.05-.03.08-.05a100.66 100.66 0 0 0 50.04-86.97v.35c-.1 8.76-3.62 17.14-9.82 23.34z" class="cls-1"/><path d="M93.54 118.15a33.536 33.536 0 0 1 40.08-5.57c-15.07-8.61-32.25-13.25-49.91-13.25s-34.88 4.65-49.96 13.27a33.508 33.508 0 0 1 16.41-4.29 33.546 33.546 0 0 1 33.54 33.17c.1-8.76 3.62-17.14 9.82-23.34z" class="cls-1"/></g></g></svg>